Crispy Extended Black-MaxGrade.ufo
<glyph name="parenleft" format="2">
  <advance width="1229"/>
  <unicode hex="0028"/>
  <outline>
    <contour>
      <point x="138" y="0" type="line"/>
      <point x="751" y="0" type="line"/>
      <point x="751" y="1202" type="line"/>
      <point x="780" y="1360" type="line"/>
      <point x="1215" y="1360" type="line"/>
      <point x="1215" y="1757" type="line"/>
      <point x="304" y="1757" type="line"/>
      <point x="138" y="1237" type="line"/>
    </contour>
  </outline>
</glyph>
<glyph name="two" format="2">
  <advance width="2972"/>
  <unicode hex="0032"/>
  <outline>
    <contour>
      <point x="196" y="0" type="line"/>
      <point x="2772" y="0" type="line"/>
      <point x="2772" y="372" type="line"/>
      <point x="834" y="372" type="line"/>
      <point x="834" y="575" type="line"/>
      <point x="2764" y="575" type="line"/>
      <point x="2764" y="1600" type="line"/>
      <point x="246" y="1600" type="line"/>
      <point x="246" y="980" type="line"/>
      <point x="884" y="980" type="line"/>
      <point x="884" y="1228" type="line"/>
      <point x="2126" y="1228" type="line"/>
      <point x="2126" y="948" type="line"/>
      <point x="196" y="948" type="line"/>
    </contour>
  </outline>
</glyph>
<glyph name="greater" format="2">
  <advance width="1517"/>
  <unicode hex="003E"/>
  <outline>
    <contour>
      <point x="220" y="181" type="line"/>
      <point x="1513" y="602" type="line"/>
      <point x="1513" y="914" type="line"/>
      <point x="213" y="1346" type="line"/>
      <point x="123" y="1047" type="line"/>
      <point x="1054" y="749" type="line"/>
      <point x="1054" y="765" type="line"/>
      <point x="127" y="475" type="line"/>
    </contour>
  </outline>
</glyph>
<glyph name="E" format="2">
  <advance width="2903"/>
  <unicode hex="0045"/>
  <outline>
    <contour>
      <point x="236" y="0" type="line"/>
      <point x="2742" y="0" type="line"/>
      <point x="2742" y="669" type="line"/>
      <point x="2149" y="669" type="line"/>
      <point x="2149" y="392" type="line"/>
      <point x="873" y="392" type="line"/>
      <point x="873" y="626" type="line"/>
      <point x="1688" y="626" type="line"/>
      <point x="1688" y="979" type="line"/>
      <point x="873" y="979" type="line"/>
      <point x="873" y="1208" type="line"/>
      <point x="2148" y="1208" type="line"/>
      <point x="2148" y="952" type="line"/>
      <point x="2741" y="952" type="line"/>
      <point x="2741" y="1600" type="line"/>
      <point x="236" y="1600" type="line"/>
    </contour>
  </outline>
</glyph>
<glyph name="K" format="2">
  <advance width="3032"/>
  <unicode hex="004B"/>
  <outline>
    <contour>
      <point x="870" y="0" type="line"/>
      <point x="870" y="564" type="line"/>
      <point x="2260" y="564" type="line"/>
      <point x="2260" y="0" type="line"/>
      <point x="2897" y="0" type="line"/>
      <point x="2897" y="964" type="line"/>
      <point x="2497" y="964" type="line"/>
      <point x="2692" y="1550" type="line"/>
      <point x="2107" y="1629" type="line"/>
      <point x="1905" y="964" type="line"/>
      <point x="870" y="964" type="line"/>
      <point x="870" y="1600" type="line"/>
      <point x="232" y="1600" type="line"/>
      <point x="232" y="0" type="line"/>
    </contour>
  </outline>
</glyph>
<glyph name="P" format="2">
  <advance width="2913"/>
  <unicode hex="0050"/>
  <outline>
    <contour>
      <point x="232" y="0" type="line"/>
      <point x="870" y="0" type="line"/>
      <point x="870" y="354" type="line"/>
      <point x="2421" y="354" type="line"/>
      <point x="2783" y="787" type="line"/>
      <point x="2783" y="1600" type="line"/>
      <point x="232" y="1600" type="line"/>
    </contour>
    <contour>
      <point x="870" y="751" type="line"/>
      <point x="870" y="1203" type="line"/>
      <point x="2145" y="1203" type="line"/>
      <point x="2145" y="908" type="line"/>
      <point x="2001" y="751" type="line"/>
    </contour>
  </outline>
</glyph>
<glyph name="Q" format="2">
  <advance width="3186"/>
  <unicode hex="0051"/>
  <outline>
    <contour>
      <point x="2954" y="1600" type="line"/>
      <point x="473" y="1600" type="line"/>
      <point x="138" y="1118" type="line"/>
      <point x="138" y="1" type="line"/>
      <point x="2954" y="1" type="line"/>
    </contour>
    <contour>
      <point x="2316" y="397" type="line"/>
      <point x="775" y="397" type="line"/>
      <point x="775" y="1027" type="line"/>
      <point x="917" y="1203" type="line"/>
      <point x="2316" y="1203" type="line"/>
    </contour>
    <contour>
      <point x="1321" y="-393" type="line"/>
      <point x="1831" y="-393" type="line"/>
      <point x="1831" y="1" type="line"/>
      <point x="1321" y="1" type="line"/>
    </contour>
  </outline>
</glyph>
<glyph name="T" format="2">
  <advance width="2692"/>
  <unicode hex="0054"/>
  <outline>
    <contour>
      <point x="1027" y="0" type="line"/>
      <point x="1665" y="0" type="line"/>
      <point x="1665" y="1203" type="line"/>
      <point x="2653" y="1203" type="line"/>
      <point x="2653" y="1600" type="line"/>
      <point x="40" y="1600" type="line"/>
      <point x="40" y="1203" type="line"/>
      <point x="1027" y="1203" type="line"/>
    </contour>
  </outline>
</glyph>
<glyph name="a" format="2">
  <advance width="2313"/>
  <unicode hex="0061"/>
  <outline>
    <contour>
      <point x="79" y="0" type="line"/>
      <point x="1383" y="0" type="line"/>
      <point x="1605" y="336" type="line"/>
      <point x="1605" y="0" type="line"/>
      <point x="2182" y="0" type="line"/>
      <point x="2182" y="1200" type="line"/>
      <point x="444" y="1200" type="line"/>
      <point x="79" y="724" type="line"/>
    </contour>
    <contour>
      <point x="656" y="355" type="line"/>
      <point x="656" y="501" type="line"/>
      <point x="928" y="845" type="line"/>
      <point x="1605" y="845" type="line"/>
      <point x="1605" y="355" type="line"/>
    </contour>
  </outline>
</glyph>
<glyph name="b" format="2">
  <advance width="2372"/>
  <unicode hex="0062"/>
  <outline>
    <contour>
      <point x="136" y="0" type="line"/>
      <point x="136" y="1700" type="line"/>
      <point x="713" y="1700" type="line"/>
      <point x="713" y="355" type="line"/>
      <point x="1511" y="355" type="line"/>
      <point x="1686" y="587" type="line"/>
      <point x="1686" y="845" type="line"/>
      <point x="685" y="845" type="line"/>
      <point x="685" y="897" type="line"/>
      <point x="933" y="1200" type="line"/>
      <point x="2264" y="1200" type="line"/>
      <point x="2264" y="300" type="line"/>
      <point x="2012" y="0" type="line"/>
    </contour>
  </outline>
</glyph>
<glyph name="c" format="2">
  <advance width="1772"/>
  <unicode hex="0063"/>
  <outline>
    <contour>
      <point x="108" y="0" type="line"/>
      <point x="108" y="1046" type="line"/>
      <point x="376" y="1347" type="line"/>
      <point x="1690" y="1347" type="line"/>
      <point x="1690" y="991" type="line"/>
      <point x="818" y="991" type="line"/>
      <point x="685" y="813" type="line"/>
      <point x="685" y="355" type="line"/>
      <point x="1690" y="355" type="line"/>
      <point x="1689" y="0" type="line"/>
    </contour>
  </outline>
</glyph>
<glyph name="d" format="2">
  <advance width="2370"/>
  <unicode hex="0064"/>
  <outline>
    <contour>
      <point x="108" y="0" type="line"/>
      <point x="1995" y="0" type="line"/>
      <point x="2263" y="304" type="line"/>
      <point x="2263" y="1700" type="line"/>
      <point x="1686" y="1700" type="line"/>
      <point x="1686" y="1347" type="line"/>
      <point x="377" y="1347" type="line"/>
      <point x="108" y="1046" type="line"/>
    </contour>
    <contour>
      <point x="685" y="355" type="line"/>
      <point x="685" y="814" type="line"/>
      <point x="819" y="991" type="line"/>
      <point x="1686" y="991" type="line"/>
      <point x="1686" y="532" type="line"/>
      <point x="1553" y="355" type="line"/>
    </contour>
  </outline>
</glyph>
<glyph name="h" format="2">
  <advance width="2373"/>
  <unicode hex="0068"/>
  <outline>
    <contour>
      <point x="1645" y="0" type="line"/>
      <point x="1645" y="845" type="line"/>
      <point x="730" y="845" type="line"/>
      <point x="730" y="871" type="line"/>
      <point x="938" y="1200" type="line"/>
      <point x="2242" y="1200" type="line"/>
      <point x="2242" y="0" type="line"/>
    </contour>
    <contour>
      <point x="137" y="0" type="line"/>
      <point x="137" y="1700" type="line"/>
      <point x="734" y="1700" type="line"/>
      <point x="734" y="0" type="line"/>
    </contour>
  </outline>
</glyph>
<glyph name="j" format="2">
  <advance width="1246"/>
  <unicode hex="006A"/>
  <outline>
    <contour>
      <point x="-185" y="-300" type="line"/>
      <point x="791" y="-300" type="line"/>
      <point x="1109" y="72" type="line"/>
      <point x="1109" y="1201" type="line"/>
      <point x="511" y="1201" type="line"/>
      <point x="511" y="377" type="line"/>
      <point x="282" y="111" type="line"/>
      <point x="-185" y="111" type="line"/>
    </contour>
    <contour>
      <point x="511" y="1294" type="line"/>
      <point x="511" y="1653" type="line"/>
      <point x="1109" y="1653" type="line"/>
      <point x="1109" y="1294" type="line"/>
    </contour>
  </outline>
</glyph>
<glyph name="l" format="2">
  <advance width="1043"/>
  <unicode hex="006C"/>
  <outline>
    <contour>
      <point x="203" y="0" type="line"/>
      <point x="841" y="0" type="line"/>
      <point x="841" y="1730" type="line"/>
      <point x="203" y="1730" type="line"/>
    </contour>
  </outline>
</glyph>
<glyph name="o" format="2">
  <advance width="2373"/>
  <unicode hex="006F"/>
  <outline>
    <contour>
      <point x="2265" y="304" type="line"/>
      <point x="2265" y="1200" type="line"/>
      <point x="377" y="1200" type="line"/>
      <point x="108" y="899" type="line"/>
      <point x="108" y="0" type="line"/>
      <point x="1997" y="0" type="line"/>
    </contour>
    <contour>
      <point x="1688" y="513" type="line"/>
      <point x="1555" y="355" type="line"/>
      <point x="685" y="355" type="line"/>
      <point x="685" y="686" type="line"/>
      <point x="819" y="845" type="line"/>
      <point x="1688" y="845" type="line"/>
    </contour>
  </outline>
</glyph>
<glyph name="p" format="2">
  <advance width="2372"/>
  <unicode hex="0070"/>
  <outline>
    <contour>
      <point x="106" y="-300" type="line"/>
      <point x="684" y="-300" type="line"/>
      <point x="684" y="0" type="line"/>
      <point x="1995" y="0" type="line"/>
      <point x="2264" y="302" type="line"/>
      <point x="2264" y="1200" type="line"/>
      <point x="375" y="1200" type="line"/>
      <point x="107" y="899" type="line"/>
    </contour>
    <contour>
      <point x="684" y="355" type="line"/>
      <point x="684" y="684" type="line"/>
      <point x="819" y="845" type="line"/>
      <point x="1687" y="845" type="line"/>
      <point x="1686" y="515" type="line"/>
      <point x="1554" y="355" type="line"/>
    </contour>
  </outline>
</glyph>
<glyph name="r" format="2">
  <advance width="1469"/>
  <unicode hex="0072"/>
  <outline>
    <contour>
      <point x="1507" y="982" type="line"/>
      <point x="867" y="982" type="line"/>
      <point x="683" y="774" type="line"/>
      <point x="683" y="0" type="line"/>
      <point x="105" y="0" type="line"/>
      <point x="105" y="974" type="line"/>
      <point x="414" y="1347" type="line"/>
      <point x="1507" y="1347" type="line"/>
    </contour>
  </outline>
</glyph>
<glyph name="s" format="2">
  <advance width="1909"/>
  <unicode hex="0073"/>
  <outline>
    <contour>
      <point x="103" y="0" type="line"/>
      <point x="1553" y="0" type="line"/>
      <point x="1806" y="290" type="line"/>
      <point x="1806" y="817" type="line"/>
      <point x="649" y="817" type="line"/>
      <point x="649" y="872" type="line"/>
      <point x="754" y="991" type="line"/>
      <point x="1763" y="991" type="line"/>
      <point x="1763" y="1347" type="line"/>
      <point x="379" y="1347" type="line"/>
      <point x="111" y="1046" type="line"/>
      <point x="111" y="535" type="line"/>
      <point x="1252" y="535" type="line"/>
      <point x="1252" y="482" type="line"/>
      <point x="1133" y="353" type="line"/>
      <point x="103" y="353" type="line"/>
    </contour>
  </outline>
</glyph>
<glyph name="t" format="2">
  <advance width="1604"/>
  <unicode hex="0074"/>
  <outline>
    <contour>
      <point x="119" y="0" type="line" smooth="yes"/>
      <point x="1547" y="0" type="line"/>
      <point x="1547" y="355" type="line"/>
      <point x="696" y="355" type="line" smooth="yes"/>
      <point x="696" y="1600" type="line"/>
      <point x="119" y="1600" type="line" smooth="yes"/>
    </contour>
    <contour>
      <point x="680" y="739" type="line"/>
      <point x="1555" y="739" type="line"/>
      <point x="1555" y="1200" type="line"/>
      <point x="990" y="1200" type="line"/>
      <point x="680" y="844" type="line"/>
    </contour>
  </outline>
</glyph>
<glyph name="v" format="2">
  <advance width="2269"/>
  <unicode hex="0076"/>
  <outline>
    <contour>
      <point x="226" y="0" type="line"/>
      <point x="1877" y="0" type="line"/>
      <point x="2259" y="1322" type="line"/>
      <point x="1667" y="1351" type="line"/>
      <point x="1397" y="355" type="line"/>
      <point x="780" y="355" type="line"/>
      <point x="685" y="1351" type="line"/>
      <point x="94" y="1322" type="line"/>
    </contour>
  </outline>
</glyph>
<glyph name="y" format="2">
  <advance width="2262"/>
  <unicode hex="0079"/>
  <outline>
    <contour>
      <point x="352" y="0" type="line"/>
      <point x="1291" y="0" type="line"/>
      <point x="1197" y="-307" type="line"/>
      <point x="1780" y="-355" type="line"/>
      <point x="2284" y="1310" type="line"/>
      <point x="1685" y="1351" type="line"/>
      <point x="1399" y="364" type="line"/>
      <point x="863" y="364" type="line"/>
      <point x="643" y="1351" type="line"/>
      <point x="44" y="1310" type="line"/>
    </contour>
  </outline>
</glyph>
<glyph name="asciitilde" format="2">
  <advance width="45"/>
  <unicode hex="007E"/>
  <outline>
    <contour>
      <point x="-296" y="1851" type="line"/>
      <point x="335" y="1697" type="line"/>
      <point x="373" y="1697" type="line"/>
      <point x="690" y="1862" type="line"/>
      <point x="646" y="2090" type="line"/>
      <point x="372" y="1950" type="line"/>
      <point x="336" y="1950" type="line"/>
      <point x="-294" y="2105" type="line"/>
      <point x="-334" y="2105" type="line"/>
      <point x="-656" y="1940" type="line"/>
      <point x="-612" y="1713" type="line"/>
      <point x="-332" y="1851" type="line"/>
    </contour>
  </outline>
</glyph>
<glyph name="section" format="2">
  <advance width="170"/>
  <unicode hex="00A7"/>
  <outline>
    <contour>
      <point x="18" y="-110" type="line"/>
      <point x="90" y="-110" type="line"/>
      <point x="123" y="44" type="line"/>
      <point x="123" y="455" type="line"/>
      <point x="131" y="455" type="line"/>
      <point x="164" y="577" type="line"/>
      <point x="164" y="865" type="line"/>
      <point x="73" y="1025" type="line"/>
      <point x="69" y="1025" type="line"/>
      <point x="69" y="1438" type="line"/>
      <point x="103" y="1598" type="line"/>
      <point x="160" y="1598" type="line"/>
      <point x="160" y="1600" type="line"/>
      <point x="101" y="1600" type="line"/>
      <point x="67" y="1438" type="line"/>
      <point x="67" y="1025" type="line"/>
      <point x="41" y="1025" type="line"/>
      <point x="7" y="895" type="line"/>
      <point x="7" y="615" type="line"/>
      <point x="100" y="455" type="line"/>
      <point x="121" y="455" type="line"/>
      <point x="121" y="48" type="line"/>
      <point x="88" y="-107" type="line"/>
      <point x="18" y="-107" type="line"/>
    </contour>
    <contour>
      <point x="9" y="616" type="line"/>
      <point x="9" y="895" type="line"/>
      <point x="43" y="1023" type="line"/>
      <point x="72" y="1023" type="line"/>
      <point x="162" y="864" type="line"/>
      <point x="162" y="577" type="line"/>
      <point x="129" y="457" type="line"/>
      <point x="101" y="457" type="line"/>
    </contour>
  </outline>
</glyph>
<glyph name="endash" format="2">
  <advance width="2150"/>
  <unicode hex="2013"/>
  <outline>
    <contour>
      <point x="170" y="617" type="line"/>
      <point x="1980" y="617" type="line"/>
      <point x="1980" y="982" type="line"/>
      <point x="170" y="982" type="line"/>
    </contour>
  </outline>
</glyph>
<glyph name="E.wide" format="2">
  <advance width="2585"/>
  <outline>
    <contour>
      <point x="232" y="0" type="line"/>
      <point x="2407" y="0" type="line"/>
      <point x="2407" y="383" type="line"/>
      <point x="869" y="383" type="line"/>
      <point x="869" y="615" type="line"/>
      <point x="2071" y="615" type="line"/>
      <point x="2071" y="990" type="line"/>
      <point x="869" y="990" type="line"/>
      <point x="869" y="1217" type="line"/>
      <point x="2399" y="1217" type="line"/>
      <point x="2399" y="1600" type="line"/>
      <point x="232" y="1600" type="line"/>
    </contour>
  </outline>
</glyph>
<glyph name="G.wide" format="2">
  <advance width="3070"/>
  <outline>
    <contour>
      <point x="138" y="0" type="line"/>
      <point x="2865" y="0" type="line"/>
      <point x="2865" y="1004" type="line"/>
      <point x="1646" y="1004" type="line"/>
      <point x="1646" y="651" type="line"/>
      <point x="2231" y="651" type="line"/>
      <point x="2231" y="383" type="line"/>
      <point x="775" y="383" type="line"/>
      <point x="775" y="968" type="line"/>
      <point x="915" y="1217" type="line"/>
      <point x="2865" y="1217" type="line"/>
      <point x="2865" y="1600" type="line"/>
      <point x="421" y="1600" type="line"/>
      <point x="138" y="1056" type="line"/>
    </contour>
  </outline>
</glyph>
<glyph name="S.wide" format="2">
  <advance width="2903"/>
  <outline>
    <contour>
      <point x="137" y="0" type="line"/>
      <point x="2401" y="0" type="line"/>
      <point x="2732" y="475" type="line"/>
      <point x="2732" y="974" type="line"/>
      <point x="705" y="974" type="line"/>
      <point x="705" y="1039" type="line"/>
      <point x="866" y="1247" type="line"/>
      <point x="2700" y="1247" type="line"/>
      <point x="2700" y="1600" type="line"/>
      <point x="473" y="1600" type="line"/>
      <point x="140" y="1107" type="line"/>
      <point x="140" y="623" type="line"/>
      <point x="2163" y="623" type="line"/>
      <point x="2163" y="542" type="line"/>
      <point x="2002" y="356" type="line"/>
      <point x="137" y="356" type="line"/>
    </contour>
  </outline>
</glyph>
<glyph name="Z.wide" format="2">
  <advance width="2941"/>
  <outline>
    <contour>
      <point x="169" y="0" type="line"/>
      <point x="2764" y="0" type="line"/>
      <point x="2764" y="355" type="line"/>
      <point x="808" y="355" type="line"/>
      <point x="808" y="504" type="line"/>
      <point x="2758" y="1083" type="line"/>
      <point x="2758" y="1600" type="line"/>
      <point x="185" y="1600" type="line"/>
      <point x="185" y="1244" type="line"/>
      <point x="2120" y="1244" type="line"/>
      <point x="2120" y="1195" type="line"/>
      <point x="169" y="623" type="line"/>
    </contour>
  </outline>
</glyph>
<glyph name="eight.smol" format="2">
  <advance width="2087"/>
  <outline>
    <contour>
      <point x="109" y="0" type="line"/>
      <point x="1978" y="0" type="line"/>
      <point x="1978" y="411" type="line"/>
      <point x="1809" y="543" type="line"/>
      <point x="1809" y="580" type="line"/>
      <point x="1931" y="580" type="line"/>
      <point x="1931" y="1109" type="line"/>
      <point x="136" y="1109" type="line"/>
      <point x="136" y="703" type="line"/>
      <point x="292" y="573" type="line"/>
      <point x="292" y="539" type="line"/>
      <point x="109" y="539" type="line"/>
    </contour>
    <contour>
      <point x="533" y="250" type="line"/>
      <point x="533" y="441" type="line"/>
      <point x="1415" y="441" type="line"/>
      <point x="1554" y="347" type="line"/>
      <point x="1554" y="250" type="line"/>
    </contour>
    <contour>
      <point x="673" y="670" type="line"/>
      <point x="538" y="766" type="line"/>
      <point x="538" y="859" type="line"/>
      <point x="1518" y="859" type="line"/>
      <point x="1518" y="670" type="line"/>
    </contour>
  </outline>
</glyph>
<glyph name="four.smol" format="2">
  <advance width="1941"/>
  <outline>
    <contour>
      <point x="1273" y="0" type="line"/>
      <point x="1697" y="0" type="line"/>
      <point x="1697" y="400" type="line"/>
      <point x="1891" y="400" type="line"/>
      <point x="1891" y="668" type="line"/>
      <point x="1697" y="668" type="line"/>
      <point x="1697" y="1109" type="line"/>
      <point x="1273" y="1109" type="line"/>
      <point x="1273" y="668" type="line"/>
      <point x="470" y="668" type="line"/>
      <point x="470" y="725" type="line"/>
      <point x="640" y="1111" type="line"/>
      <point x="260" y="1180" type="line"/>
      <point x="45" y="725" type="line"/>
      <point x="45" y="400" type="line"/>
      <point x="1273" y="400" type="line"/>
    </contour>
  </outline>
</glyph>
<glyph name="six.smol" format="2">
  <advance width="2047"/>
  <outline>
    <contour>
      <point x="96" y="0" type="line"/>
      <point x="1923" y="0" type="line"/>
      <point x="1923" y="662" type="line"/>
      <point x="520" y="662" type="line"/>
      <point x="520" y="731" type="line"/>
      <point x="625" y="871" type="line"/>
      <point x="1437" y="871" type="line"/>
      <point x="1437" y="729" type="line"/>
      <point x="1861" y="729" type="line"/>
      <point x="1861" y="1109" type="line"/>
      <point x="325" y="1109" type="line"/>
      <point x="96" y="772" type="line"/>
    </contour>
    <contour>
      <point x="1499" y="423" type="line"/>
      <point x="1499" y="258" type="line"/>
      <point x="520" y="258" type="line"/>
      <point x="520" y="423" type="line"/>
    </contour>
  </outline>
</glyph>
